<svg width="231" height="69" viewBox="0 0 231 69" fill="none" xmlns="http://www.w3.org/2000/svg">
<path d="M185.003 0.5H11C5.20101 0.5 0.5 5.20101 0.5 11V58C0.5 63.799 5.20101 68.5 11 68.5H184.922C187.303 68.5 189.614 67.6907 191.474 66.2047L221.38 42.3221C226.693 38.0794 226.634 29.9835 221.261 25.8184L191.436 2.70107C189.595 1.2743 187.332 0.5 185.003 0.5Z" stroke="#CBD5E0"/>
<path d="M11 4H185.003C186.556 4 188.065 4.5162 189.292 5.46738L219.116 28.5847C222.699 31.3614 222.738 36.7587 219.196 39.5871L189.29 63.4698C188.05 64.4604 186.51 65 184.922 65H11C7.13401 65 4 61.866 4 58V11C4 7.13401 7.13401 4 11 4Z" fill="#1CB68B" stroke="white" stroke-width="6"/>
<path d="M22.2914 50L13.9675 20.9091H20.6863L25.5016 41.1222H25.7431L31.0556 20.9091H36.8084L42.1067 41.1648H42.3624L47.1778 20.9091H53.8965L45.5726 50H39.5783L34.0386 30.9801H33.8113L28.2857 50H22.2914ZM59.2729 50H52.682L62.7246 20.9091H70.6508L80.6792 50H74.0883L66.8013 27.5568H66.5741L59.2729 50ZM58.861 38.5653H74.4292V43.3665H58.861V38.5653ZM79.518 25.9801V20.9091H103.41V25.9801H94.5038V50H88.4242V25.9801H79.518ZM131.684 31.0938H125.463C125.349 30.2888 125.117 29.5739 124.767 28.9489C124.416 28.3144 123.966 27.7746 123.417 27.3295C122.868 26.8845 122.233 26.5436 121.514 26.3068C120.803 26.0701 120.032 25.9517 119.198 25.9517C117.693 25.9517 116.381 26.3258 115.264 27.0739C114.146 27.8125 113.28 28.892 112.664 30.3125C112.049 31.7235 111.741 33.4375 111.741 35.4545C111.741 37.5284 112.049 39.2708 112.664 40.6818C113.289 42.0928 114.16 43.1581 115.278 43.8778C116.395 44.5975 117.688 44.9574 119.156 44.9574C119.98 44.9574 120.742 44.8485 121.443 44.6307C122.153 44.4129 122.783 44.0956 123.332 43.679C123.881 43.2528 124.336 42.7367 124.696 42.1307C125.065 41.5246 125.321 40.8333 125.463 40.0568L131.684 40.0852C131.523 41.4205 131.121 42.7083 130.477 43.9489C129.842 45.1799 128.985 46.2831 127.906 47.2585C126.836 48.2244 125.557 48.9915 124.071 49.5597C122.593 50.1184 120.922 50.3977 119.056 50.3977C116.462 50.3977 114.142 49.8106 112.096 48.6364C110.06 47.4621 108.45 45.7623 107.267 43.5369C106.092 41.3116 105.505 38.6174 105.505 35.4545C105.505 32.2822 106.102 29.5833 107.295 27.358C108.488 25.1326 110.107 23.4375 112.153 22.2727C114.198 21.0985 116.499 20.5114 119.056 20.5114C120.742 20.5114 122.304 20.7481 123.744 21.2216C125.193 21.6951 126.476 22.3864 127.593 23.2955C128.711 24.1951 129.62 25.2983 130.321 26.6051C131.031 27.9119 131.485 29.4081 131.684 31.0938ZM136.095 50V20.9091H142.245V32.9119H154.731V20.9091H160.867V50H154.731V37.983H142.245V50H136.095Z" fill="white"/>
<path d="M176.983 25.1921C176.935 24.7051 176.727 24.3268 176.361 24.0572C175.995 23.7875 175.498 23.6527 174.87 23.6527C174.443 23.6527 174.083 23.7131 173.789 23.8338C173.495 23.9505 173.27 24.1135 173.113 24.3228C172.96 24.5321 172.884 24.7695 172.884 25.0352C172.876 25.2565 172.922 25.4497 173.023 25.6147C173.127 25.7797 173.27 25.9226 173.451 26.0433C173.632 26.16 173.842 26.2627 174.079 26.3512C174.317 26.4357 174.57 26.5082 174.84 26.5685L175.951 26.8342C176.49 26.9549 176.985 27.1159 177.436 27.3171C177.886 27.5183 178.277 27.7659 178.607 28.0597C178.937 28.3535 179.192 28.6996 179.373 29.098C179.559 29.4964 179.653 29.9532 179.657 30.4684C179.653 31.225 179.46 31.881 179.078 32.4364C178.699 32.9878 178.152 33.4164 177.436 33.7223C176.723 34.0241 175.864 34.1751 174.858 34.1751C173.86 34.1751 172.99 34.0221 172.25 33.7163C171.513 33.4104 170.938 32.9576 170.523 32.358C170.113 31.7543 169.897 31.0077 169.877 30.1183H172.407C172.435 30.5328 172.554 30.8789 172.763 31.1566C172.976 31.4303 173.26 31.6375 173.614 31.7784C173.972 31.9152 174.377 31.9837 174.828 31.9837C175.27 31.9837 175.655 31.9193 175.981 31.7905C176.311 31.6617 176.566 31.4826 176.747 31.2532C176.928 31.0238 177.019 30.7602 177.019 30.4624C177.019 30.1847 176.937 29.9512 176.772 29.7621C176.611 29.5729 176.373 29.4119 176.059 29.2791C175.749 29.1463 175.369 29.0256 174.918 28.9169L173.572 28.5788C172.53 28.3253 171.707 27.9289 171.103 27.3896C170.499 26.8503 170.199 26.1238 170.203 25.2102C170.199 24.4616 170.399 23.8076 170.801 23.2482C171.207 22.6888 171.765 22.2521 172.473 21.9382C173.182 21.6243 173.986 21.4673 174.888 21.4673C175.806 21.4673 176.607 21.6243 177.291 21.9382C177.979 22.2521 178.514 22.6888 178.897 23.2482C179.279 23.8076 179.476 24.4556 179.488 25.1921H176.983ZM180.945 23.7915V21.6364H191.099V23.7915H187.314V34H184.73V23.7915H180.945Z" fill="white"/>
</svg>
