<svg width="103" height="69" viewBox="0 0 103 69" fill="none" xmlns="http://www.w3.org/2000/svg">
<path d="M78.3194 0.5H11C5.20101 0.5 0.5 5.20101 0.5 11V58C0.5 63.799 5.20102 68.5 11 68.5H78.2338C82.0477 68.5 85.5617 66.4319 87.4133 63.0976L100.7 39.1709C102.484 35.9588 102.459 32.048 100.635 28.8589L87.4331 5.78557C85.5629 2.51683 82.0854 0.5 78.3194 0.5Z" stroke="#A0AEC0"/>
<path d="M11 4H78.3194C80.83 4 83.1484 5.34456 84.3952 7.52372L97.5966 30.597C98.8131 32.7231 98.8297 35.3303 97.6405 37.4717L84.3535 61.3984C83.1191 63.6213 80.7764 65 78.2338 65H11C7.13401 65 4 61.866 4 58V11C4 7.13401 7.13401 4 11 4Z" fill="#1CB68B" stroke="white" stroke-width="6"/>
<path d="M25.1205 50L16.7967 20.9091H23.5154L28.3308 41.1222H28.5723L33.8848 20.9091H39.6376L44.9359 41.1648H45.1916L50.0069 20.9091H56.7257L48.4018 50H42.4075L36.8677 30.9801H36.6404L31.1149 50H25.1205Z" fill="white"/>
<path d="M66.1139 25.1921C66.0656 24.7051 65.8583 24.3268 65.4921 24.0572C65.1259 23.7875 64.6288 23.6527 64.001 23.6527C63.5744 23.6527 63.2142 23.7131 62.9204 23.8338C62.6266 23.9505 62.4012 24.1135 62.2442 24.3228C62.0913 24.5321 62.0148 24.7695 62.0148 25.0352C62.0068 25.2565 62.0531 25.4497 62.1537 25.6147C62.2583 25.7797 62.4012 25.9226 62.5823 26.0433C62.7634 26.16 62.9727 26.2627 63.2101 26.3512C63.4476 26.4357 63.7011 26.5082 63.9708 26.5685L65.0816 26.8342C65.6209 26.9549 66.1159 27.1159 66.5667 27.3171C67.0174 27.5183 67.4078 27.7659 67.7378 28.0597C68.0679 28.3535 68.3234 28.6996 68.5045 29.098C68.6897 29.4964 68.7842 29.9532 68.7883 30.4684C68.7842 31.225 68.5911 31.881 68.2087 32.4364C67.8304 32.9878 67.2831 33.4164 66.5667 33.7223C65.8543 34.0241 64.9951 34.1751 63.9889 34.1751C62.9908 34.1751 62.1215 34.0221 61.3809 33.7163C60.6444 33.4104 60.0689 32.9576 59.6544 32.358C59.2439 31.7543 59.0286 31.0077 59.0084 30.1183H61.5379C61.5661 30.5328 61.6848 30.8789 61.8941 31.1566C62.1074 31.4303 62.3911 31.6375 62.7453 31.7784C63.1035 31.9152 63.508 31.9837 63.9587 31.9837C64.4014 31.9837 64.7858 31.9193 65.1118 31.7905C65.4418 31.6617 65.6974 31.4826 65.8785 31.2532C66.0596 31.0238 66.1501 30.7602 66.1501 30.4624C66.1501 30.1847 66.0676 29.9512 65.9026 29.7621C65.7416 29.5729 65.5042 29.4119 65.1902 29.2791C64.8804 29.1463 64.5 29.0256 64.0493 28.9169L62.703 28.5788C61.6607 28.3253 60.8376 27.9289 60.2339 27.3896C59.6302 26.8503 59.3304 26.1238 59.3344 25.2102C59.3304 24.4616 59.5296 23.8076 59.9321 23.2482C60.3386 22.6888 60.896 22.2521 61.6043 21.9382C62.3126 21.6243 63.1176 21.4673 64.0191 21.4673C64.9367 21.4673 65.7376 21.6243 66.4218 21.9382C67.11 22.2521 67.6453 22.6888 68.0276 23.2482C68.4099 23.8076 68.6072 24.4556 68.6192 25.1921H66.1139ZM70.0756 23.7915V21.6364H80.2298V23.7915H76.4446V34H73.8608V23.7915H70.0756Z" fill="white"/>
</svg>
