<svg width="105" height="69" viewBox="0 0 105 69" fill="none" xmlns="http://www.w3.org/2000/svg">
<path d="M1 0.5H0.5V1V68V68.5H1H84.119H84.4132L84.5561 68.2427L103.437 34.2427L103.574 33.9963L103.434 33.7517L84.553 0.751694L84.409 0.5H84.119H1Z" stroke="black"/>
<path d="M4 4H82.3791L99.5563 34.022L82.3534 65H4V4Z" fill="#1CB68B" stroke="white" stroke-width="6"/>
<path d="M33.854 50L25.5302 20.9091H32.2489L37.0643 41.1222H37.3058L42.6183 20.9091H48.3711L53.6694 41.1648H53.9251L58.7404 20.9091H65.4592L57.1353 50H51.141L45.6012 30.9801H45.3739L39.8484 50H33.854Z" fill="white"/>
</svg>
