<svg width="200" height="69" viewBox="0 0 200 69" fill="none" xmlns="http://www.w3.org/2000/svg">
<path d="M1 0.5H0.5V1V68V68.5H1H171.567H171.794L171.944 68.3286L198.377 38.0191L198.638 37.7201L198.406 37.3982L171.973 0.707733L171.823 0.5H171.567H1Z" stroke="black"/>
<path d="M3.5 3.5H170.287L194.812 37.5423L170.43 65.5H3.5V3.5Z" fill="#1CB68B" stroke="white" stroke-width="5"/>
<path d="M21.7317 48.619L14.4483 23.1645H20.3272L24.5406 40.8509H24.7519L29.4003 23.1645H34.4341L39.0701 40.8882H39.2938L43.5072 23.1645H49.3861L42.1028 48.619H36.8577L32.0104 31.9766H31.8116L26.9767 48.619H21.7317ZM54.0905 48.619H48.3235L57.1108 23.1645H64.0461L72.821 48.619H67.0539L60.6779 28.9813H60.479L54.0905 48.619ZM53.7301 38.6137H67.3522V42.8147H53.7301V38.6137ZM71.8049 27.6016V23.1645H92.7104V27.6016H84.9175V48.619H79.5979V27.6016H71.8049ZM117.45 32.0761H112.006C111.907 31.3718 111.704 30.7462 111.397 30.1993C111.091 29.6441 110.697 29.1718 110.217 28.7824C109.736 28.393 109.181 28.0947 108.551 27.8875C107.93 27.6804 107.254 27.5768 106.525 27.5768C105.208 27.5768 104.06 27.9041 103.082 28.5587C102.105 29.205 101.347 30.1496 100.808 31.3925C100.269 32.6271 100 34.1269 100 35.8918C100 37.7064 100.269 39.231 100.808 40.4656C101.355 41.7003 102.117 42.6324 103.095 43.2622C104.073 43.8919 105.204 44.2068 106.488 44.2068C107.209 44.2068 107.876 44.1115 108.489 43.9209C109.11 43.7303 109.662 43.4527 110.142 43.0882C110.623 42.7153 111.02 42.2637 111.335 41.7334C111.658 41.2031 111.882 40.5982 112.006 39.9188L117.45 39.9436C117.309 41.1119 116.957 42.2388 116.394 43.3243C115.839 44.4015 115.089 45.3668 114.144 46.2203C113.208 47.0654 112.089 47.7366 110.788 48.2338C109.496 48.7226 108.033 48.9671 106.401 48.9671C104.131 48.9671 102.101 48.4533 100.311 47.4259C98.5293 46.3984 97.1207 44.9111 96.0849 42.9639C95.0575 41.0167 94.5437 38.6593 94.5437 35.8918C94.5437 33.116 95.0657 30.7545 96.1098 28.8073C97.1538 26.8601 98.5707 25.3769 100.36 24.3577C102.15 23.3302 104.164 22.8165 106.401 22.8165C107.876 22.8165 109.243 23.0236 110.503 23.4379C111.77 23.8522 112.893 24.4571 113.871 25.2526C114.849 26.0397 115.644 27.0051 116.257 28.1485C116.879 29.292 117.276 30.6012 117.45 32.0761ZM121.31 48.619V23.1645H126.691V33.667H137.616V23.1645H142.986V48.619H137.616V38.1041H126.691V48.619H121.31Z" fill="white"/>
<path d="M156.286 25.8112C156.238 25.3242 156.031 24.9459 155.665 24.6762C155.298 24.4066 154.801 24.2717 154.174 24.2717C153.747 24.2717 153.387 24.3321 153.093 24.4529C152.799 24.5696 152.574 24.7326 152.417 24.9418C152.264 25.1511 152.187 25.3886 152.187 25.6542C152.179 25.8756 152.226 26.0687 152.326 26.2338C152.431 26.3988 152.574 26.5416 152.755 26.6624C152.936 26.7791 153.145 26.8817 153.383 26.9703C153.62 27.0548 153.874 27.1272 154.143 27.1876L155.254 27.4532C155.793 27.5739 156.289 27.7349 156.739 27.9362C157.19 28.1374 157.58 28.3849 157.91 28.6787C158.24 28.9725 158.496 29.3186 158.677 29.7171C158.862 30.1155 158.957 30.5723 158.961 31.0874C158.957 31.8441 158.764 32.5001 158.381 33.0555C158.003 33.6069 157.456 34.0355 156.739 34.3414C156.027 34.6432 155.168 34.7941 154.161 34.7941C153.163 34.7941 152.294 34.6412 151.554 34.3353C150.817 34.0294 150.242 33.5767 149.827 32.977C149.416 32.3733 149.201 31.6267 149.181 30.7373H151.71C151.739 31.1518 151.857 31.498 152.067 31.7757C152.28 32.0493 152.564 32.2566 152.918 32.3975C153.276 32.5343 153.681 32.6027 154.131 32.6027C154.574 32.6027 154.958 32.5383 155.284 32.4095C155.614 32.2807 155.87 32.1016 156.051 31.8722C156.232 31.6428 156.323 31.3792 156.323 31.0814C156.323 30.8037 156.24 30.5703 156.075 30.3811C155.914 30.192 155.677 30.031 155.363 29.8982C155.053 29.7654 154.673 29.6446 154.222 29.536L152.876 29.1979C151.833 28.9443 151.01 28.5479 150.407 28.0086C149.803 27.4693 149.503 26.7429 149.507 25.8293C149.503 25.0807 149.702 24.4267 150.105 23.8673C150.511 23.3079 151.069 22.8712 151.777 22.5573C152.485 22.2433 153.29 22.0864 154.192 22.0864C155.109 22.0864 155.91 22.2433 156.594 22.5573C157.283 22.8712 157.818 23.3079 158.2 23.8673C158.583 24.4267 158.78 25.0747 158.792 25.8112H156.286ZM160.248 24.4106V22.2554H170.402V24.4106H166.617V34.619H164.033V24.4106H160.248Z" fill="white"/>
</svg>
