<svg width="200" height="76" viewBox="0 0 200 76" fill="none" xmlns="http://www.w3.org/2000/svg">
<path d="M1 0.5H0.5V1V75V75.5H1H172H172.242L172.392 75.3103L198.892 41.8341L199.116 41.5517L198.918 41.2502L172.418 0.726349L172.27 0.5H172H1Z" stroke="black"/>
<path d="M3.5 3.5H170.648L195.422 41.3845L170.791 72.5H3.5V3.5Z" fill="#1CB68B" stroke="white" stroke-width="5"/>
<path d="M21.7317 51.619L14.4483 26.1645H20.3272L24.5406 43.8509H24.7519L29.4003 26.1645H34.4341L39.0701 43.8882H39.2938L43.5072 26.1645H49.3861L42.1028 51.619H36.8577L32.0104 34.9766H31.8116L26.9767 51.619H21.7317ZM54.0905 51.619H48.3235L57.1108 26.1645H64.0461L72.821 51.619H67.0539L60.6779 31.9813H60.479L54.0905 51.619ZM53.7301 41.6137H67.3522V45.8147H53.7301V41.6137ZM71.8049 30.6016V26.1645H92.7104V30.6016H84.9175V51.619H79.5979V30.6016H71.8049ZM117.45 35.0761H112.006C111.907 34.3718 111.704 33.7462 111.397 33.1993C111.091 32.6441 110.697 32.1718 110.217 31.7824C109.736 31.393 109.181 31.0947 108.551 30.8875C107.93 30.6804 107.254 30.5768 106.525 30.5768C105.208 30.5768 104.06 30.9041 103.082 31.5587C102.105 32.205 101.347 33.1496 100.808 34.3925C100.269 35.6271 100 37.1269 100 38.8918C100 40.7064 100.269 42.231 100.808 43.4656C101.355 44.7003 102.117 45.6324 103.095 46.2622C104.073 46.8919 105.204 47.2068 106.488 47.2068C107.209 47.2068 107.876 47.1115 108.489 46.9209C109.11 46.7303 109.662 46.4527 110.142 46.0882C110.623 45.7153 111.02 45.2637 111.335 44.7334C111.658 44.2031 111.882 43.5982 112.006 42.9188L117.45 42.9436C117.309 44.1119 116.957 45.2388 116.394 46.3243C115.839 47.4015 115.089 48.3668 114.144 49.2203C113.208 50.0654 112.089 50.7366 110.788 51.2338C109.496 51.7226 108.033 51.9671 106.401 51.9671C104.131 51.9671 102.101 51.4533 100.311 50.4259C98.5293 49.3984 97.1207 47.9111 96.0849 45.9639C95.0575 44.0167 94.5437 41.6593 94.5437 38.8918C94.5437 36.116 95.0657 33.7545 96.1098 31.8073C97.1538 29.8601 98.5707 28.3769 100.36 27.3577C102.15 26.3302 104.164 25.8165 106.401 25.8165C107.876 25.8165 109.243 26.0236 110.503 26.4379C111.77 26.8522 112.893 27.4571 113.871 28.2526C114.849 29.0397 115.644 30.0051 116.257 31.1485C116.879 32.292 117.276 33.6012 117.45 35.0761ZM121.31 51.619V26.1645H126.691V36.667H137.616V26.1645H142.986V51.619H137.616V41.1041H126.691V51.619H121.31Z" fill="white"/>
<path d="M156.286 28.8112C156.238 28.3242 156.031 27.9459 155.665 27.6762C155.298 27.4066 154.801 27.2717 154.174 27.2717C153.747 27.2717 153.387 27.3321 153.093 27.4529C152.799 27.5696 152.574 27.7326 152.417 27.9418C152.264 28.1511 152.187 28.3886 152.187 28.6542C152.179 28.8756 152.226 29.0687 152.326 29.2338C152.431 29.3988 152.574 29.5416 152.755 29.6624C152.936 29.7791 153.145 29.8817 153.383 29.9703C153.62 30.0548 153.874 30.1272 154.143 30.1876L155.254 30.4532C155.793 30.5739 156.289 30.7349 156.739 30.9362C157.19 31.1374 157.58 31.3849 157.91 31.6787C158.24 31.9725 158.496 32.3186 158.677 32.7171C158.862 33.1155 158.957 33.5723 158.961 34.0874C158.957 34.8441 158.764 35.5001 158.381 36.0555C158.003 36.6069 157.456 37.0355 156.739 37.3414C156.027 37.6432 155.168 37.7941 154.161 37.7941C153.163 37.7941 152.294 37.6412 151.554 37.3353C150.817 37.0294 150.242 36.5767 149.827 35.977C149.416 35.3733 149.201 34.6267 149.181 33.7373H151.71C151.739 34.1518 151.857 34.498 152.067 34.7757C152.28 35.0493 152.564 35.2566 152.918 35.3975C153.276 35.5343 153.681 35.6027 154.131 35.6027C154.574 35.6027 154.958 35.5383 155.284 35.4095C155.614 35.2807 155.87 35.1016 156.051 34.8722C156.232 34.6428 156.323 34.3792 156.323 34.0814C156.323 33.8037 156.24 33.5703 156.075 33.3811C155.914 33.192 155.677 33.031 155.363 32.8982C155.053 32.7654 154.673 32.6446 154.222 32.536L152.876 32.1979C151.833 31.9443 151.01 31.5479 150.407 31.0086C149.803 30.4693 149.503 29.7429 149.507 28.8293C149.503 28.0807 149.702 27.4267 150.105 26.8673C150.511 26.3079 151.069 25.8712 151.777 25.5573C152.485 25.2433 153.29 25.0864 154.192 25.0864C155.109 25.0864 155.91 25.2433 156.594 25.5573C157.283 25.8712 157.818 26.3079 158.2 26.8673C158.583 27.4267 158.78 28.0747 158.792 28.8112H156.286ZM160.248 27.4106V25.2554H170.402V27.4106H166.617V37.619H164.033V27.4106H160.248Z" fill="white"/>
</svg>
