<svg width="198" height="63" viewBox="0 0 198 63" fill="none" xmlns="http://www.w3.org/2000/svg">
<path d="M2.5 2.5H169.768L194.229 34.3461L169.911 60.5H2.5V2.5Z" fill="#1CB68B" stroke="white" stroke-width="5"/>
<path d="M20.7317 45L13.4483 19.5455H19.3272L23.5406 37.2319H23.7519L28.4003 19.5455H33.4341L38.0701 37.2692H38.2938L42.5072 19.5455H48.3861L41.1028 45H35.8577L31.0104 28.3576H30.8116L25.9767 45H20.7317ZM53.0905 45H47.3235L56.1108 19.5455H63.0461L71.821 45H66.0539L59.6779 25.3622H59.479L53.0905 45ZM52.7301 34.9947H66.3522V39.1957H52.7301V34.9947ZM70.8049 23.9826V19.5455H91.7104V23.9826H83.9175V45H78.5979V23.9826H70.8049ZM116.45 28.457H111.006C110.907 27.7527 110.704 27.1271 110.397 26.5803C110.091 26.0251 109.697 25.5528 109.217 25.1634C108.736 24.7739 108.181 24.4756 107.551 24.2685C106.93 24.0613 106.254 23.9577 105.525 23.9577C104.208 23.9577 103.06 24.285 102.082 24.9396C101.105 25.5859 100.347 26.5305 99.8079 27.7734C99.2693 29.008 99 30.5078 99 32.2727C99 34.0874 99.2693 35.612 99.8079 36.8466C100.355 38.0812 101.117 39.0134 102.095 39.6431C103.073 40.2728 104.204 40.5877 105.488 40.5877C106.209 40.5877 106.876 40.4924 107.489 40.3018C108.11 40.1113 108.662 39.8337 109.142 39.4691C109.623 39.0962 110.02 38.6446 110.335 38.1143C110.658 37.584 110.882 36.9792 111.006 36.2997L116.45 36.3246C116.309 37.4929 115.957 38.6198 115.394 39.7053C114.839 40.7824 114.089 41.7478 113.144 42.6012C112.208 43.4464 111.089 44.1175 109.788 44.6147C108.496 45.1036 107.033 45.348 105.401 45.348C103.131 45.348 101.101 44.8343 99.3108 43.8068C97.5293 42.7794 96.1207 41.292 95.0849 39.3448C94.0575 37.3976 93.5437 35.0402 93.5437 32.2727C93.5437 29.4969 94.0657 27.1354 95.1098 25.1882C96.1538 23.241 97.5707 21.7578 99.3605 20.7386C101.15 19.7112 103.164 19.1974 105.401 19.1974C106.876 19.1974 108.243 19.4046 109.503 19.8189C110.77 20.2332 111.893 20.8381 112.871 21.6335C113.849 22.4207 114.644 23.386 115.257 24.5295C115.879 25.6729 116.276 26.9821 116.45 28.457ZM120.31 45V19.5455H125.691V30.0479H136.616V19.5455H141.986V45H136.616V34.4851H125.691V45H120.31Z" fill="white"/>
<path d="M155.286 23.1921C155.238 22.7051 155.031 22.3268 154.665 22.0572C154.298 21.7875 153.801 21.6527 153.174 21.6527C152.747 21.6527 152.387 21.7131 152.093 21.8338C151.799 21.9505 151.574 22.1135 151.417 22.3228C151.264 22.5321 151.187 22.7695 151.187 23.0352C151.179 23.2565 151.226 23.4497 151.326 23.6147C151.431 23.7797 151.574 23.9226 151.755 24.0433C151.936 24.16 152.145 24.2627 152.383 24.3512C152.62 24.4357 152.874 24.5082 153.143 24.5685L154.254 24.8342C154.793 24.9549 155.289 25.1159 155.739 25.3171C156.19 25.5183 156.58 25.7659 156.91 26.0597C157.24 26.3535 157.496 26.6996 157.677 27.098C157.862 27.4964 157.957 27.9532 157.961 28.4684C157.957 29.225 157.764 29.881 157.381 30.4364C157.003 30.9878 156.456 31.4164 155.739 31.7223C155.027 32.0241 154.168 32.1751 153.161 32.1751C152.163 32.1751 151.294 32.0221 150.554 31.7163C149.817 31.4104 149.242 30.9576 148.827 30.358C148.416 29.7543 148.201 29.0077 148.181 28.1183H150.71C150.739 28.5328 150.857 28.8789 151.067 29.1566C151.28 29.4303 151.564 29.6375 151.918 29.7784C152.276 29.9152 152.681 29.9837 153.131 29.9837C153.574 29.9837 153.958 29.9193 154.284 29.7905C154.614 29.6617 154.87 29.4826 155.051 29.2532C155.232 29.0238 155.323 28.7602 155.323 28.4624C155.323 28.1847 155.24 27.9512 155.075 27.7621C154.914 27.5729 154.677 27.4119 154.363 27.2791C154.053 27.1463 153.673 27.0256 153.222 26.9169L151.876 26.5788C150.833 26.3253 150.01 25.9289 149.407 25.3896C148.803 24.8503 148.503 24.1238 148.507 23.2102C148.503 22.4616 148.702 21.8076 149.105 21.2482C149.511 20.6888 150.069 20.2521 150.777 19.9382C151.485 19.6243 152.29 19.4673 153.192 19.4673C154.109 19.4673 154.91 19.6243 155.594 19.9382C156.283 20.2521 156.818 20.6888 157.2 21.2482C157.583 21.8076 157.78 22.4556 157.792 23.1921H155.286ZM159.248 21.7915V19.6364H169.402V21.7915H165.617V32H163.033V21.7915H159.248Z" fill="white"/>
</svg>
